<svg xmlns="http://www.w3.org/2000/svg" xmlns:xlink="http://www.w3.org/1999/xlink" preserveAspectRatio="xMidYMid" width="86.094" height="39.75" viewBox="0 0 86.094 39.75">
  <defs>
    <style>
      .cls-1 {
        fill: #333;
        fill-rule: evenodd;
      }
    </style>
  </defs>
  <path d="M83.253,19.703 C81.368,21.725 78.785,22.735 75.504,22.735 C72.213,22.735 69.630,21.712 67.755,19.666 C65.880,17.621 64.942,14.859 64.942,11.383 C64.942,7.877 65.880,5.106 67.755,3.070 C69.630,1.034 72.213,0.016 75.504,0.016 C78.785,0.016 81.368,1.029 83.253,3.055 C85.138,5.082 86.080,7.857 86.080,11.383 C86.080,14.908 85.138,17.682 83.253,19.703 ZM80.023,8.050 C79.754,7.137 79.395,6.388 78.946,5.802 C78.478,5.206 77.948,4.779 77.357,4.520 C76.766,4.261 76.153,4.132 75.519,4.132 C74.845,4.132 74.234,4.251 73.688,4.491 C73.141,4.730 72.613,5.157 72.106,5.772 C71.656,6.339 71.293,7.091 71.014,8.028 C70.736,8.966 70.597,10.084 70.597,11.383 C70.597,12.721 70.729,13.832 70.992,14.715 C71.256,15.599 71.617,16.339 72.076,16.934 C72.545,17.540 73.077,17.972 73.673,18.231 C74.268,18.490 74.884,18.619 75.519,18.619 C76.163,18.619 76.788,18.480 77.394,18.202 C77.999,17.923 78.522,17.491 78.961,16.905 C79.430,16.270 79.791,15.531 80.045,14.686 C80.299,13.841 80.426,12.735 80.426,11.368 C80.426,10.069 80.292,8.963 80.023,8.050 ZM66.855,31.350 C66.996,31.350 67.102,31.354 67.173,31.361 C67.244,31.368 67.323,31.379 67.411,31.394 L67.411,32.829 L67.338,32.829 C67.235,32.800 67.127,32.782 67.012,32.775 C66.897,32.767 66.759,32.764 66.598,32.764 C66.227,32.764 65.859,32.844 65.492,33.005 C65.126,33.166 64.779,33.406 64.452,33.723 L64.452,39.531 L63.075,39.531 L63.075,31.350 L64.452,31.350 L64.452,32.566 C64.955,32.122 65.393,31.808 65.767,31.625 C66.140,31.442 66.503,31.350 66.855,31.350 ZM56.781,37.766 C57.259,38.269 57.921,38.520 58.765,38.520 C59.068,38.520 59.365,38.486 59.655,38.418 C59.946,38.350 60.208,38.262 60.443,38.154 C60.692,38.042 60.902,37.933 61.073,37.828 C61.243,37.723 61.385,37.624 61.497,37.532 L61.578,37.532 L61.578,39.033 C61.417,39.097 61.217,39.176 60.977,39.271 C60.738,39.366 60.523,39.441 60.333,39.495 C60.064,39.568 59.821,39.624 59.604,39.663 C59.387,39.702 59.112,39.722 58.780,39.722 C57.476,39.722 56.464,39.354 55.744,38.619 C55.024,37.884 54.664,36.841 54.664,35.488 C54.664,34.155 55.013,33.094 55.711,32.306 C56.409,31.517 57.323,31.123 58.450,31.123 C58.958,31.123 59.407,31.196 59.798,31.343 C60.189,31.489 60.531,31.719 60.823,32.031 C61.116,32.344 61.341,32.726 61.497,33.177 C61.654,33.629 61.732,34.182 61.732,34.836 L61.732,35.583 L56.063,35.583 C56.063,36.536 56.302,37.263 56.781,37.766 ZM60.391,34.529 C60.382,34.158 60.338,33.838 60.260,33.569 C60.181,33.301 60.069,33.074 59.923,32.888 C59.761,32.683 59.555,32.527 59.304,32.419 C59.052,32.312 58.741,32.258 58.370,32.258 C58.004,32.258 57.692,32.313 57.436,32.423 C57.180,32.533 56.946,32.693 56.737,32.903 C56.532,33.118 56.375,33.356 56.268,33.617 C56.160,33.878 56.092,34.182 56.063,34.529 L60.391,34.529 ZM52.534,22.735 C49.106,22.735 46.374,21.746 44.338,19.769 C42.302,17.791 41.284,14.986 41.284,11.353 C41.284,7.936 42.302,5.196 44.338,3.136 C46.374,1.075 49.160,0.045 52.695,0.045 C54.521,0.045 56.006,0.218 57.148,0.565 C58.291,0.912 59.472,1.383 60.693,1.978 L60.693,7.091 L60.195,7.091 C59.931,6.886 59.553,6.595 59.060,6.219 C58.567,5.843 58.086,5.523 57.617,5.260 C57.070,4.947 56.438,4.679 55.720,4.454 C55.002,4.230 54.243,4.117 53.442,4.117 C52.505,4.117 51.650,4.264 50.879,4.557 C50.107,4.850 49.419,5.299 48.813,5.904 C48.237,6.490 47.781,7.232 47.444,8.131 C47.107,9.029 46.938,10.074 46.938,11.266 C46.938,13.814 47.578,15.694 48.857,16.905 C50.136,18.116 51.884,18.722 54.101,18.722 C54.297,18.722 54.526,18.717 54.790,18.707 C55.054,18.697 55.283,18.683 55.478,18.663 L55.478,14.386 L51.245,14.386 L51.245,10.299 L60.781,10.299 L60.781,21.036 C59.824,21.427 58.581,21.808 57.053,22.179 C55.525,22.550 54.018,22.735 52.534,22.735 ZM35.970,37.766 C36.448,38.269 37.110,38.520 37.955,38.520 C38.257,38.520 38.554,38.486 38.845,38.418 C39.135,38.350 39.397,38.262 39.632,38.154 C39.881,38.042 40.091,37.933 40.262,37.828 C40.433,37.723 40.574,37.624 40.687,37.532 L40.767,37.532 L40.767,39.033 C40.606,39.097 40.406,39.176 40.167,39.271 C39.927,39.366 39.712,39.441 39.522,39.495 C39.253,39.568 39.010,39.624 38.793,39.663 C38.576,39.702 38.301,39.722 37.969,39.722 C36.666,39.722 35.654,39.354 34.933,38.619 C34.213,37.884 33.853,36.841 33.853,35.488 C33.853,34.155 34.202,33.094 34.900,32.306 C35.599,31.517 36.512,31.123 37.640,31.123 C38.147,31.123 38.597,31.196 38.987,31.343 C39.378,31.489 39.720,31.719 40.013,32.031 C40.306,32.344 40.530,32.726 40.687,33.177 C40.843,33.629 40.921,34.182 40.921,34.836 L40.921,35.583 L35.252,35.583 C35.252,36.536 35.491,37.263 35.970,37.766 ZM39.581,34.529 C39.571,34.158 39.527,33.838 39.449,33.569 C39.371,33.301 39.258,33.074 39.112,32.888 C38.951,32.683 38.744,32.527 38.493,32.419 C38.241,32.312 37.930,32.258 37.559,32.258 C37.193,32.258 36.882,32.313 36.625,32.423 C36.369,32.533 36.136,32.693 35.926,32.903 C35.721,33.118 35.564,33.356 35.457,33.617 C35.350,33.878 35.281,34.182 35.252,34.529 L39.581,34.529 ZM27.401,22.735 C24.110,22.735 21.527,21.712 19.652,19.666 C17.777,17.621 16.839,14.859 16.839,11.383 C16.839,7.877 17.777,5.106 19.652,3.070 C21.527,1.034 24.110,0.016 27.401,0.016 C30.682,0.016 33.265,1.029 35.150,3.055 C37.035,5.082 37.977,7.857 37.977,11.383 C37.977,14.908 37.035,17.682 35.150,19.703 C33.265,21.725 30.682,22.735 27.401,22.735 ZM31.920,8.050 C31.651,7.137 31.292,6.388 30.843,5.802 C30.375,5.206 29.845,4.779 29.254,4.520 C28.663,4.261 28.050,4.132 27.416,4.132 C26.742,4.132 26.131,4.251 25.584,4.491 C25.037,4.730 24.510,5.157 24.002,5.772 C23.553,6.339 23.190,7.091 22.911,8.028 C22.633,8.966 22.494,10.084 22.494,11.383 C22.494,12.721 22.626,13.832 22.889,14.715 C23.153,15.599 23.514,16.339 23.973,16.934 C24.442,17.540 24.974,17.972 25.570,18.231 C26.165,18.490 26.781,18.619 27.416,18.619 C28.060,18.619 28.685,18.480 29.291,18.202 C29.896,17.923 30.418,17.491 30.858,16.905 C31.327,16.270 31.688,15.531 31.942,14.686 C32.196,13.841 32.323,12.735 32.323,11.368 C32.323,10.069 32.188,8.963 31.920,8.050 ZM14.876,28.135 L16.253,28.135 L16.253,39.531 L14.876,39.531 L14.876,28.135 ZM0.037,0.470 L5.515,0.470 L5.515,18.121 L14.597,18.121 L14.597,22.281 L0.037,22.281 L0.037,0.470 ZM2.879,37.685 L4.820,31.350 L5.955,31.350 L7.947,37.685 L9.310,31.350 L10.694,31.350 L8.621,39.531 L7.347,39.531 L5.347,33.225 L3.362,39.531 L2.095,39.531 L0.001,31.350 L1.436,31.350 L2.879,37.685 ZM13.185,29.980 L11.617,29.980 L11.617,28.552 L13.185,28.552 L13.185,29.980 ZM13.090,39.531 L11.713,39.531 L11.713,31.350 L13.090,31.350 L13.090,39.531 ZM19.417,39.531 L18.040,39.531 L18.040,28.135 L19.417,28.135 L19.417,39.531 ZM27.503,32.207 C27.850,31.895 28.226,31.636 28.631,31.431 C29.036,31.226 29.495,31.123 30.008,31.123 C30.931,31.123 31.658,31.493 32.190,32.233 C32.723,32.972 32.989,33.997 32.989,35.305 C32.989,36.643 32.664,37.720 32.015,38.535 C31.365,39.351 30.552,39.758 29.576,39.758 C29.131,39.758 28.752,39.703 28.437,39.593 C28.122,39.484 27.811,39.336 27.503,39.150 L27.415,39.531 L26.126,39.531 L26.126,28.135 L27.503,28.135 L27.503,32.207 ZM27.503,38.052 C27.850,38.223 28.157,38.344 28.426,38.414 C28.694,38.485 28.990,38.520 29.312,38.520 C30.015,38.520 30.567,38.271 30.967,37.773 C31.368,37.275 31.568,36.489 31.568,35.415 C31.568,34.438 31.419,33.697 31.121,33.192 C30.823,32.687 30.345,32.434 29.686,32.434 C29.310,32.434 28.930,32.522 28.547,32.698 C28.163,32.873 27.815,33.096 27.503,33.364 L27.503,38.052 ZM48.377,32.258 C48.787,31.892 49.192,31.611 49.593,31.416 C49.993,31.221 50.415,31.123 50.860,31.123 C51.666,31.123 52.295,31.388 52.750,31.918 C53.204,32.447 53.431,33.215 53.431,34.221 L53.431,39.531 L52.054,39.531 L52.054,34.873 C52.054,34.497 52.035,34.147 51.999,33.822 C51.962,33.497 51.893,33.237 51.790,33.042 C51.678,32.837 51.521,32.684 51.321,32.584 C51.121,32.484 50.848,32.434 50.501,32.434 C50.159,32.434 49.806,32.526 49.443,32.709 C49.079,32.892 48.724,33.130 48.377,33.423 L48.377,39.531 L47.000,39.531 L47.000,28.135 L48.377,28.135 L48.377,32.258 ZM71.588,31.123 C72.096,31.123 72.545,31.196 72.935,31.343 C73.326,31.489 73.668,31.719 73.961,32.031 C74.254,32.344 74.478,32.726 74.635,33.177 C74.791,33.629 74.869,34.182 74.869,34.836 L74.869,35.583 L69.200,35.583 C69.200,36.536 69.439,37.263 69.918,37.766 C70.396,38.269 71.058,38.520 71.903,38.520 C72.205,38.520 72.502,38.486 72.793,38.418 C73.083,38.350 73.346,38.262 73.580,38.154 C73.829,38.042 74.039,37.933 74.210,37.828 C74.381,37.723 74.522,37.624 74.635,37.532 L74.715,37.532 L74.715,39.033 C74.554,39.097 74.354,39.176 74.115,39.271 C73.875,39.366 73.661,39.441 73.470,39.495 C73.201,39.568 72.958,39.624 72.741,39.663 C72.524,39.702 72.249,39.722 71.917,39.722 C70.614,39.722 69.602,39.354 68.881,38.619 C68.161,37.884 67.801,36.841 67.801,35.488 C67.801,34.155 68.150,33.094 68.848,32.306 C69.547,31.517 70.460,31.123 71.588,31.123 ZM73.529,34.529 C73.519,34.158 73.475,33.838 73.397,33.569 C73.319,33.301 73.206,33.074 73.060,32.888 C72.899,32.683 72.692,32.527 72.441,32.419 C72.189,32.312 71.878,32.258 71.507,32.258 C71.141,32.258 70.830,32.313 70.573,32.423 C70.317,32.533 70.084,32.693 69.874,32.903 C69.669,33.118 69.512,33.356 69.405,33.617 C69.298,33.878 69.229,34.182 69.200,34.529 L73.529,34.529 Z" class="cls-1"/>
</svg>
